<svg xmlns="http://www.w3.org/2000/svg" width="30" height="30" viewBox="0 0 30 30" fill="none">
  <g clip-path="url(#clip0_2681_5864)">
    <path d="M22.9102 7.96875C22.9102 3.60695 19.3618 0 15 0C10.6382 0 7.08984 3.60695 7.08984 7.96875C7.08984 12.3305 10.6382 15.8789 15 15.8789C19.3618 15.8789 22.9102 12.3305 22.9102 7.96875ZM14.1211 13.2422V12.4617C13.0955 12.1005 12.3539 11.1319 12.3539 9.98405C12.3539 9.49836 12.7469 9.10514 13.2328 9.10514C13.7185 9.10514 14.1117 9.49836 14.1117 9.98405C14.1117 10.4691 14.5056 10.863 14.9906 10.863C15.4754 10.863 15.8695 10.4691 15.8695 9.98405C15.8695 9.49905 15.4754 9.10514 14.9906 9.10514C13.5365 9.10514 12.3539 7.92228 12.3539 6.46843C12.3539 5.32059 13.0955 4.35219 14.1211 3.99078V2.69531C14.1211 2.20985 14.5145 1.81641 15 1.81641C15.4855 1.81641 15.8789 2.20985 15.8789 2.69531V3.9965C16.8949 4.36317 17.6273 5.32768 17.6273 6.46843C17.6273 6.95434 17.2341 7.34733 16.7484 7.34733C16.2625 7.34733 15.8695 6.95434 15.8695 6.46843C15.8695 5.98343 15.4754 5.58952 14.9906 5.58952C14.5056 5.58952 14.1117 5.98343 14.1117 6.46843C14.1117 6.95343 14.5056 7.34733 14.9906 7.34733C16.4445 7.34733 17.6273 8.53019 17.6273 9.98405C17.6273 11.1248 16.8949 12.0893 15.8789 12.456V13.2422C15.8789 13.7281 15.4857 14.1211 15 14.1211C14.5141 14.1211 14.1211 13.7279 14.1211 13.2422Z" fill="currentColor"/>
    <path d="M0.878906 28.1831L6.07017 28.1655C6.22673 28.1916 14.4468 29.6837 16.2669 29.987C16.4939 30.0247 16.715 29.9767 16.9036 29.8446C18.8834 28.4585 30.4239 20.2977 29.6308 20.853C30.0355 20.5639 30.1101 20.0251 29.8416 19.6225C28.9863 18.4323 27.3232 18.1643 26.1678 18.9897C25.992 19.1126 17.447 25.0459 17.9883 24.6675H11.4844C10.992 24.6675 10.6055 24.2807 10.6055 23.7886C10.6055 23.2963 10.992 22.9097 11.4844 22.9097C12.1012 22.9097 17.0114 22.9097 16.7578 22.9097C17.7246 22.9097 18.5156 22.1187 18.5156 21.1519C18.5156 20.1851 17.7246 19.3941 16.7578 19.3941H15.6679C15.4571 19.3941 15.246 19.3236 15.0879 19.1831C14.8723 19.0203 14.0359 18.1114 12.6443 17.6363C8.65287 16.2252 6.11824 19.2675 5.877 19.3941H0.878906C0.393448 19.3941 0 19.7875 0 20.273V27.3072C0 27.792 0.393905 28.1848 0.878906 28.1831Z" fill="currentColor"/>
  </g>
  <defs>
    <clipPath id="clip0_2681_5864">
      <rect width="30" height="30" fill="white"/>
    </clipPath>
  </defs>
</svg>