<svg xmlns="http://www.w3.org/2000/svg" width="31" height="30" viewBox="0 0 31 30" fill="none">
  <path d="M5.55898 8.96562C5.13853 8.72277 4.60111 8.86697 4.3585 9.28719C4.11566 9.70765 4.25985 10.2451 4.68008 10.4877C5.1003 10.7305 5.63795 10.5863 5.88056 10.1661C6.1234 9.74564 5.97921 9.20823 5.55898 8.96562Z" fill="currentColor"/>
  <path d="M27.9711 7.08984H27.0922V6.21094C27.0922 5.72525 26.6992 5.33203 26.2133 5.33203C25.7276 5.33203 25.3343 5.72525 25.3343 6.21094V7.08984H24.4554C23.9698 7.08984 23.5765 7.48306 23.5765 7.96875C23.5765 8.45466 23.9698 8.84765 24.4554 8.84765H25.3343V9.72656C25.3343 10.2122 25.7276 10.6055 26.2133 10.6055C26.6992 10.6055 27.0922 10.2122 27.0922 9.72656V8.84765H27.9711C28.4568 8.84765 28.85 8.45466 28.85 7.96875C28.85 7.48306 28.4568 7.08984 27.9711 7.08984Z" fill="currentCOlor"/>
  <path d="M4.24084 4.39453C4.24084 4.88044 4.63383 5.27343 5.11975 5.27343C5.60544 5.27343 5.99865 4.88044 5.99865 4.39453V3.51562H6.87756C7.36325 3.51562 7.75646 3.12263 7.75646 2.63672C7.75646 2.15103 7.36325 1.75781 6.87756 1.75781H5.99865V0.878905C5.99865 0.393219 5.60544 0 5.11975 0C4.63383 0 4.24084 0.393219 4.24084 0.878905V1.75781H3.36194C2.87625 1.75781 2.48303 2.15103 2.48303 2.63672C2.48303 3.12263 2.87625 3.51562 3.36194 3.51562H4.24084V4.39453Z" fill="currentCOlor"/>
  <path d="M9.79237 1.6431C10.6289 3.31668 11.0936 5.16422 11.2105 7.03143H20.1227C20.2394 5.16444 20.7041 3.31668 21.5406 1.6431L21.726 1.27231C21.8952 0.934254 21.829 0.5257 21.5612 0.257909C21.2944 -0.0098827 20.8858 -0.0760295 20.5468 0.093114L17.5977 1.56757L16.2878 0.257909C15.9445 -0.0854136 15.3883 -0.0854136 15.045 0.257909L13.7353 1.56757L10.7862 0.0928852C10.4463 -0.0760295 10.0405 -0.0107982 9.77178 0.257909C9.50398 0.525471 9.43784 0.934025 9.60698 1.27231L9.79237 1.6431Z" fill="currentCOlor"/>
  <path d="M21.0476 8.84766H10.2852L6.85353 13.0009C5.16873 15.0412 4.24084 17.6823 4.24084 20.332C4.24084 26.2051 8.72555 29.9998 15.6664 29.9998C22.6075 29.9998 27.0922 26.2051 27.0922 20.332C27.0922 17.6823 26.1643 15.0998 24.4786 13.0595L21.0476 8.84766ZM15.657 17.9528C17.1111 17.9528 18.2937 19.1354 18.2937 20.5895C18.2937 21.7303 17.5613 22.6945 16.5453 23.0612V23.8476C16.5453 24.3333 16.1523 24.7265 15.6664 24.7265C15.1807 24.7265 14.7877 24.3333 14.7877 23.8476V23.0672C13.7619 22.7058 13.0203 21.7371 13.0203 20.5895C13.0203 20.1036 13.4135 19.7106 13.8992 19.7106C14.3851 19.7106 14.7781 20.1036 14.7781 20.5895C14.7781 21.0745 15.1722 21.4684 15.657 21.4684C16.142 21.4684 16.5359 21.0745 16.5359 20.5895C16.5359 20.1045 16.142 19.7106 15.657 19.7106C14.2031 19.7106 13.0203 18.5277 13.0203 17.0739C13.0203 15.926 13.7619 14.9577 14.7877 14.5962V13.3008C14.7877 12.8151 15.1807 12.4219 15.6664 12.4219C16.1523 12.4219 16.5453 12.8151 16.5453 13.3008V14.6022C17.5613 14.9689 18.2937 15.9331 18.2937 17.0739C18.2937 17.5598 17.9007 17.9528 17.4148 17.9528C16.9291 17.9528 16.5359 17.5598 16.5359 17.0739C16.5359 16.5891 16.142 16.195 15.657 16.195C15.1722 16.195 14.7781 16.5891 14.7781 17.0739C14.7781 17.5589 15.172 17.9528 15.657 17.9528Z" fill="currentCOlor"/>
</svg>