<svg xmlns="http://www.w3.org/2000/svg" width="30" height="30" viewBox="0 0 30 30" fill="none">
  <path d="M19.2188 20.1562C19.2188 19.3448 19.2188 16.875 21.5625 16.875H26.25V14.0625C26.25 12.7702 25.1986 11.7188 23.9062 11.7188H3.75C2.45766 11.7188 1.40625 12.7702 1.40625 14.0625V26.25C1.40625 27.5423 2.45766 28.5938 3.75 28.5938H23.9062C25.1986 28.5938 26.25 27.5423 26.25 26.25V23.4375H21.5625C19.2188 23.4375 19.2188 20.9677 19.2188 20.1562Z" fill="currentColor"/>
  <path d="M20.1563 10.7809V7.93938C20.1563 7.45516 19.9036 7.01594 19.4804 6.76469C19.0416 6.50407 18.5119 6.49516 18.0643 6.73938L9.95911 10.7809H20.1563Z" fill="currentColor"/>
  <path d="M22.9688 21.0938C23.4865 21.0938 23.9062 20.674 23.9062 20.1562C23.9062 19.6385 23.4865 19.2188 22.9688 19.2188C22.451 19.2188 22.0312 19.6385 22.0312 20.1562C22.0312 20.674 22.451 21.0938 22.9688 21.0938Z" fill="currentColor"/>
  <path d="M15.9376 6.75177V4.7563C15.9376 4.04334 15.4988 3.59052 15.0886 3.40443C14.5908 3.17849 14.0452 3.26193 13.629 3.62709L5.46521 10.7802H7.85865L15.9376 6.75177Z" fill="currentColor"/>
  <path d="M27.1875 17.8125H21.5625C20.7183 17.8125 20.1562 18.2114 20.1562 20.1562C20.1562 22.1011 20.7183 22.5 21.5625 22.5H27.1875C27.9628 22.5 28.5938 21.8691 28.5938 21.0938V19.2188C28.5938 18.4434 27.9628 17.8125 27.1875 17.8125ZM22.9688 22.0312C21.9347 22.0312 21.0938 21.1903 21.0938 20.1562C21.0938 19.1222 21.9347 18.2812 22.9688 18.2812C24.0028 18.2812 24.8438 19.1222 24.8438 20.1562C24.8438 21.1903 24.0028 22.0312 22.9688 22.0312Z" fill="currentColor"/>
  <path d="M28.9589 4.12393L26.8027 1.2233C26.5233 0.847363 25.9598 0.847363 25.6805 1.22377L23.5373 4.10986C23.3241 4.32314 23.475 4.68736 23.7764 4.68736H24.8348C25.1212 6.09174 24.4903 7.52424 23.2613 8.26158L22.9688 8.43736L24.8438 9.84361L24.9262 9.78877C26.6316 8.65158 27.6562 6.73721 27.6562 4.68736H28.7255C29.0198 4.68736 29.167 4.33205 28.9589 4.12393Z" fill="currentColor"/>
</svg>