<svg xmlns="http://www.w3.org/2000/svg" width="30" height="30" viewBox="0 0 30 30" fill="none">
  <path d="M0.466003 15.9434V25.0009H3.4697V15.9434H0.466003ZM2.36604 19.3353C2.36604 19.4409 2.32409 19.5422 2.24941 19.6169C2.17474 19.6915 2.07346 19.7335 1.96785 19.7335C1.86224 19.7335 1.76096 19.6915 1.68629 19.6169C1.61161 19.5422 1.56966 19.4409 1.56966 19.3353V17.1127C1.56966 17.0071 1.61161 16.9058 1.68629 16.8312C1.76096 16.7565 1.86224 16.7145 1.96785 16.7145C2.07346 16.7145 2.17474 16.7565 2.24941 16.8312C2.32409 16.9058 2.36604 17.0071 2.36604 17.1127V19.3353Z" fill="currentColor"/>
  <path d="M22.5414 19.3567C22.5424 19.5537 22.4886 19.7472 22.3859 19.9154C22.2833 20.0836 22.1358 20.2199 21.9601 20.309C20.7841 20.9063 14.9088 23.918 14.6951 24.0507C12.2522 25.5705 7.62054 23.9293 6.25872 23.3904C5.87646 23.2384 4.85377 23.1501 4.26776 23.1103V17.8535H4.86505C5.76654 17.857 6.65536 18.0661 7.46391 18.4647C8.29746 18.8795 10.753 19.0939 11.0848 19.0999L14.0334 19.151C14.2995 19.1558 14.5528 19.2662 14.7376 19.4577C14.9223 19.6492 15.0236 19.9062 15.0189 20.1723V20.2924C15.0167 20.43 14.986 20.5656 14.9287 20.6906C14.9247 20.6999 14.9201 20.7086 14.9161 20.7178C14.865 20.8214 14.7963 20.9153 14.713 20.9952C14.6188 21.0877 14.507 21.1602 14.3842 21.2086C14.2614 21.2569 14.1302 21.28 13.9982 21.2766L10.1988 21.2103C10.1465 21.2094 10.0946 21.2188 10.0459 21.2379C9.99725 21.2571 9.95284 21.2856 9.91522 21.322C9.8776 21.3583 9.8475 21.4017 9.82664 21.4496C9.80579 21.4976 9.79458 21.5492 9.79367 21.6015C9.79275 21.6538 9.80215 21.7057 9.82131 21.7544C9.84048 21.8031 9.86904 21.8475 9.90537 21.8851C9.9417 21.9227 9.98508 21.9528 10.033 21.9737C10.081 21.9945 10.1326 22.0057 10.1849 22.0067L13.9843 22.073H14.0168C14.333 22.073 14.6436 21.9897 14.9174 21.8314C15.1912 21.6732 15.4185 21.4457 15.5764 21.1718L20.9951 18.411C21.1571 18.3279 21.3377 18.2879 21.5196 18.2948C21.7015 18.3016 21.8786 18.3552 22.0339 18.4502C22.1892 18.5452 22.3174 18.6786 22.4063 18.8374C22.4952 18.9963 22.5417 19.1753 22.5414 19.3574V19.3567Z" fill="currentColor"/>
  <path d="M16.5589 11.6554L15.951 11.6448C15.4737 11.6363 15.0193 11.4385 14.6878 11.095C14.3563 10.7515 14.1747 10.2904 14.1831 9.81312V9.69366C14.1895 9.38357 14.2756 9.08035 14.4329 8.81307C14.5903 8.54579 14.8137 8.32341 15.0816 8.16726C14.2557 7.33958 13.1683 6.82398 12.0048 6.70836C10.8413 6.59274 9.67367 6.88426 8.70104 7.53322C7.72841 8.18218 7.01097 9.1484 6.67104 10.2672C6.33112 11.3859 6.38974 12.5879 6.83693 13.6683C7.28412 14.7487 8.09217 15.6405 9.12334 16.1917C10.1545 16.7429 11.3449 16.9194 12.4917 16.6911C13.6384 16.4628 14.6705 15.8439 15.412 14.9397C16.1534 14.0356 16.5583 12.9023 16.5576 11.7331C16.5596 11.7059 16.5596 11.6813 16.5589 11.6554ZM11.9021 14.8622V15.5444C11.9021 15.65 11.8601 15.7513 11.7854 15.826C11.7108 15.9007 11.6095 15.9426 11.5039 15.9426C11.3983 15.9426 11.297 15.9007 11.2223 15.826C11.1476 15.7513 11.1057 15.65 11.1057 15.5444V14.8629C10.8294 14.8 10.572 14.6724 10.3548 14.4904C10.1376 14.3084 9.96689 14.0773 9.8567 13.8163C9.8363 13.7681 9.8256 13.7163 9.8252 13.664C9.82481 13.6117 9.83472 13.5598 9.85438 13.5113C9.87404 13.4628 9.90306 13.4186 9.93978 13.3813C9.9765 13.3441 10.0202 13.3144 10.0684 13.294C10.1166 13.2736 10.1683 13.2629 10.2207 13.2625C10.273 13.2621 10.3249 13.272 10.3734 13.2917C10.4219 13.3113 10.466 13.3403 10.5033 13.3771C10.5406 13.4138 10.5703 13.4575 10.5907 13.5057C10.6604 13.6707 10.7735 13.8137 10.918 13.9195C11.0625 14.0253 11.233 14.09 11.4114 14.1067C11.5897 14.1233 11.7692 14.0913 11.9308 14.014C12.0924 13.9368 12.2301 13.8171 12.3291 13.6679C12.4281 13.5186 12.4848 13.3453 12.4932 13.1664C12.5015 12.9875 12.4613 12.8096 12.3766 12.6518C12.292 12.494 12.1661 12.362 12.0124 12.27C11.8587 12.178 11.683 12.1294 11.5039 12.1293C11.0642 12.1298 10.6398 11.9682 10.3118 11.6754C9.98379 11.3827 9.7752 10.9793 9.72591 10.5424C9.67663 10.1055 9.79012 9.66578 10.0447 9.3073C10.2992 8.94883 10.677 8.69676 11.1057 8.5993V7.91773C11.1057 7.81212 11.1476 7.71084 11.2223 7.63616C11.297 7.56149 11.3983 7.51954 11.5039 7.51954C11.6095 7.51954 11.7108 7.56149 11.7854 7.63616C11.8601 7.71084 11.9021 7.81212 11.9021 7.91773V8.59864C12.1572 8.65626 12.3965 8.76938 12.603 8.92997C12.8094 9.09055 12.978 9.29465 13.0967 9.52775C13.1446 9.62192 13.1532 9.73128 13.1205 9.83178C13.0879 9.93228 13.0166 10.0157 12.9224 10.0637C12.8283 10.1116 12.7189 10.1202 12.6184 10.0875C12.5179 10.0549 12.4345 9.98361 12.3865 9.88944C12.3067 9.73217 12.1864 9.59903 12.0381 9.50375C11.8897 9.40847 11.7185 9.35449 11.5423 9.34738C11.3661 9.34027 11.1912 9.38029 11.0356 9.46331C10.88 9.54633 10.7494 9.66934 10.6572 9.81967C10.565 9.97 10.5145 10.1422 10.511 10.3185C10.5076 10.4948 10.5512 10.6689 10.6374 10.8227C10.7236 10.9766 10.8493 11.1047 11.0015 11.1937C11.1537 11.2828 11.3269 11.3297 11.5032 11.3296C11.9424 11.3298 12.3661 11.4917 12.6935 11.7844C13.0209 12.0771 13.229 12.48 13.2783 12.9164C13.3275 13.3528 13.2144 13.792 12.9604 14.1503C12.7064 14.5086 12.3295 14.7608 11.9014 14.8589L11.9021 14.8622Z" fill="currentColor"/>
  <path d="M25.7338 6.88758V12.1444H25.1366C24.2351 12.1409 23.3462 11.9318 22.5377 11.5332C21.7028 11.1184 19.2473 10.904 18.9155 10.898L16.9524 10.8642H16.9384L15.9669 10.8476C15.7008 10.8427 15.4475 10.7324 15.2627 10.5409C15.0779 10.3494 14.9767 10.0923 14.9813 9.82624V9.70612C14.9854 9.46863 15.0736 9.24028 15.2302 9.06174C15.3869 8.8832 15.6018 8.76607 15.8368 8.73121C15.8915 8.72334 15.9468 8.71979 16.002 8.72059L19.8014 8.78696H19.8087C19.861 8.78739 19.9129 8.77752 19.9614 8.75792C20.0099 8.73831 20.054 8.70934 20.0913 8.67268C20.1286 8.63601 20.1583 8.59236 20.1787 8.54421C20.1991 8.49607 20.2098 8.44438 20.2103 8.39208C20.2107 8.33979 20.2008 8.28793 20.1812 8.23945C20.1616 8.19097 20.1326 8.14683 20.096 8.10955C20.0593 8.07226 20.0157 8.04257 19.9675 8.02215C19.9194 8.00174 19.8677 7.99101 19.8154 7.99057L16.016 7.92421C15.9927 7.92421 15.9689 7.92421 15.9456 7.92421C15.4562 7.351 14.8606 6.87777 14.1916 6.53054C15.2229 5.99961 15.2787 5.96245 15.3052 5.94586C17.7481 4.42609 22.3797 6.06731 23.7409 6.60619C24.1238 6.7595 25.1465 6.84776 25.7338 6.88758Z" fill="currentColor"/>
  <path d="M26.5305 4.99805V14.0556H29.5342V4.99805H26.5305ZM28.4305 12.8862C28.4305 12.9918 28.3885 13.0931 28.3139 13.1678C28.2392 13.2425 28.1379 13.2844 28.0323 13.2844C27.9267 13.2844 27.8254 13.2425 27.7507 13.1678C27.6761 13.0931 27.6341 12.9918 27.6341 12.8862V10.6637C27.6341 10.558 27.6761 10.4568 27.7507 10.3821C27.8254 10.3074 27.9267 10.2655 28.0323 10.2655C28.1379 10.2655 28.2392 10.3074 28.3139 10.3821C28.3885 10.4568 28.4305 10.558 28.4305 10.6637V12.8862Z" fill="currentColor"/>
</svg>