<svg xmlns="http://www.w3.org/2000/svg" width="31" height="30" viewBox="0 0 31 30" fill="none">
  <g clip-path="url(#clip0_2681_5822)">
    <path d="M20.6653 10.6641C15.3344 10.6641 10.9974 15.0011 10.9974 20.332C10.9974 25.6629 15.3344 30 20.6653 30C25.9963 30 30.3333 25.6629 30.3333 20.332C30.3333 15.0011 25.9963 10.6641 20.6653 10.6641ZM20.6653 19.4531C22.1193 19.4531 23.3021 20.6359 23.3021 22.0898C23.3021 23.2342 22.5651 24.2006 21.5443 24.5647V26.4844H19.7864V24.5647C18.7656 24.2006 18.0286 23.2342 18.0286 22.0898H19.7864C19.7864 22.5748 20.1804 22.9688 20.6653 22.9688C21.1503 22.9688 21.5443 22.5748 21.5443 22.0898C21.5443 21.6049 21.1503 21.2109 20.6653 21.2109C19.2114 21.2109 18.0286 20.0282 18.0286 18.5742C18.0286 17.4299 18.7656 16.4634 19.7864 16.0994V14.1797H21.5443V16.0994C22.5651 16.4634 23.3021 17.4299 23.3021 18.5742H21.5443C21.5443 18.0893 21.1503 17.6953 20.6653 17.6953C20.1804 17.6953 19.7864 18.0893 19.7864 18.5742C19.7864 19.0591 20.1804 19.4531 20.6653 19.4531Z" fill="currentColor"/>
    <path d="M10.1185 10.6641C15.5396 10.6641 19.7864 8.3475 19.7864 5.39062C19.7864 2.43375 15.5396 0 10.1185 0C4.69738 0 0.333313 2.43375 0.333313 5.39062C0.333313 8.3475 4.69738 10.6641 10.1185 10.6641Z" fill="currentColor"/>
    <path d="M0.333313 19.7793V21.2114C0.333313 24.1683 4.69738 26.4848 10.1185 26.4848C10.426 26.4848 10.7239 26.4565 11.0267 26.4417C10.3525 25.3817 9.8497 24.2055 9.55363 22.948C5.63341 22.8398 2.22952 21.6352 0.333313 19.7793Z" fill="currentColor"/>
    <path d="M9.28181 21.1666C9.26165 20.8902 9.23956 20.614 9.23956 20.3325C9.23956 19.4162 9.35962 18.5295 9.56435 17.6751C5.63927 17.5687 2.23122 16.3635 0.333313 14.5059V15.9379C0.333313 18.738 4.27445 20.9385 9.28181 21.1666Z" fill="currentColor"/>
    <path d="M10.1185 15.9379C10.1194 15.9379 10.1202 15.9378 10.1212 15.9378C10.7008 14.5524 11.5435 13.3036 12.5899 12.2572C11.7961 12.3575 10.9758 12.4223 10.1185 12.4223C5.9456 12.4223 2.32116 11.178 0.333313 9.23242V10.6645C0.333313 13.6214 4.69738 15.9379 10.1185 15.9379Z" fill="currentColor"/>
  </g>
  <defs>
    <clipPath id="clip0_2681_5822">
      <rect width="30" height="30" fill="currentColor" transform="translate(0.333313)"/>
    </clipPath>
  </defs>
</svg>