<svg width="160" height="160" viewBox="0 0 200 200" fill="none" xmlns="http://www.w3.org/2000/svg">
<rect width="200" height="200" fill="#F7F9FA"/>
<path d="M68.5993 123.368L68.5326 123.434C67.6326 121.468 67.066 119.234 66.8326 116.768C67.066 119.201 67.6993 121.401 68.5993 123.368Z" fill="#C6C9CC"/>
<path d="M90.0004 94.601C94.382 94.601 97.9336 91.0491 97.9336 86.6677C97.9336 82.2862 94.382 78.7344 90.0004 78.7344C85.6189 78.7344 82.067 82.2862 82.067 86.6677C82.067 91.0491 85.6189 94.601 90.0004 94.601Z" fill="#C6C9CC"/>
<path d="M113.967 66.668H86.0333C73.9 66.668 66.6666 73.9013 66.6666 86.0346V113.968C66.6666 117.601 67.3 120.768 68.5333 123.435C71.4 129.768 77.5333 133.335 86.0333 133.335H113.967C126.1 133.335 133.333 126.101 133.333 113.968V106.335V86.0346C133.333 73.9013 126.1 66.668 113.967 66.668ZM127.9 101.668C125.3 99.4346 121.1 99.4346 118.5 101.668L104.633 113.568C102.033 115.801 97.8333 115.801 95.2333 113.568L94.1 112.635C91.7333 110.568 87.9666 110.368 85.3 112.168L72.8333 120.535C72.1 118.668 71.6666 116.501 71.6666 113.968V86.0346C71.6666 76.6346 76.6333 71.668 86.0333 71.668H113.967C123.367 71.668 128.333 76.6346 128.333 86.0346V102.035L127.9 101.668Z" fill="#C6C9CC"/>
</svg>
