<svg width="16" height="16" viewBox="0 0 16 16" fill="none" xmlns="http://www.w3.org/2000/svg">
<g id="wpf:administrator">
<path id="Vector" d="M10.176 9.95491C10.0975 9.92864 9.60122 9.69976 9.91131 8.7352H9.90687C10.7152 7.88332 11.3329 6.51253 11.3329 5.16297C11.3329 3.08784 9.98439 2 8.41716 2C6.84894 2 5.50786 3.08733 5.50786 5.16297C5.50786 6.51809 6.12211 7.89444 6.93535 8.7443C7.25236 9.59516 6.68551 9.91096 6.567 9.95491C4.92571 10.5627 3 11.6698 3 12.7627V13.1725C3 14.6615 5.82141 15 8.43247 15C11.0475 15 13.8333 14.6615 13.8333 13.1725V12.7627C13.8333 11.6369 11.8982 10.5385 10.176 9.95491ZM7.45233 14.3553C7.45233 13.0674 8.25372 11.3287 8.25372 11.3287L7.69922 10.8836C7.69922 10.4582 8.41667 10.013 8.41667 10.013C8.41667 10.013 9.13214 10.4652 9.13214 10.8836L8.57961 11.3287C8.57961 11.3287 9.381 13.0608 9.381 14.3694C9.381 14.5746 7.45233 14.5271 7.45233 14.3553Z" fill="currentColor"/>
</g>
</svg>
