<svg width="24" height="24" viewBox="0 0 24 24" fill="none" xmlns="http://www.w3.org/2000/svg">
<g id="Icon">
<path id="Icon_2" fill-rule="evenodd" clip-rule="evenodd" d="M10.4 16.8C10.4 17.68 11.12 18.4 12 18.4C12.88 18.4 13.6 17.68 13.6 16.8C13.6 15.92 12.88 15.2 12 15.2C11.12 15.2 10.4 15.92 10.4 16.8ZM10.4 7.20002C10.4 8.08002 11.12 8.80002 12 8.80002C12.88 8.80002 13.6 8.08002 13.6 7.20002C13.6 6.32002 12.88 5.60002 12 5.60002C11.12 5.60002 10.4 6.32002 10.4 7.20002ZM10.4 12C10.4 12.88 11.12 13.6 12 13.6C12.88 13.6 13.6 12.88 13.6 12C13.6 11.12 12.88 10.4 12 10.4C11.12 10.4 10.4 11.12 10.4 12Z" fill="currentColor"/>
</g>
</svg>
