<svg width="14" height="14" viewBox="0 0 14 14" fill="none" xmlns="http://www.w3.org/2000/svg">
<g id="fi-rr-user" clip-path="url(#clip0_12_5443)">
<path id="Vector" d="M7 6.99994C7.69223 6.99994 8.36892 6.79467 8.9445 6.41008C9.52007 6.0255 9.96867 5.47887 10.2336 4.83933C10.4985 4.19979 10.5678 3.49606 10.4327 2.81712C10.2977 2.13819 9.96436 1.51455 9.47487 1.02507C8.98539 0.535583 8.36175 0.20224 7.68282 0.0671921C7.00388 -0.0678562 6.30015 0.00145547 5.66061 0.266362C5.02107 0.531269 4.47444 0.979873 4.08986 1.55544C3.70527 2.13102 3.5 2.80771 3.5 3.49994C3.50093 4.42791 3.86997 5.31762 4.52615 5.97379C5.18233 6.62997 6.07203 6.99901 7 6.99994ZM7 1.16661C7.46149 1.16661 7.91262 1.30345 8.29633 1.55984C8.68005 1.81623 8.97912 2.18065 9.15572 2.60701C9.33232 3.03337 9.37853 3.50253 9.2885 3.95515C9.19847 4.40777 8.97624 4.82353 8.64992 5.14986C8.32359 5.47618 7.90783 5.69841 7.45521 5.78844C7.00259 5.87847 6.53343 5.83226 6.10707 5.65566C5.68071 5.47906 5.31629 5.17999 5.0599 4.79627C4.80351 4.41256 4.66667 3.96143 4.66667 3.49994C4.66667 2.8811 4.9125 2.28761 5.35008 1.85002C5.78767 1.41244 6.38116 1.16661 7 1.16661Z" fill="#232323"/>
<path id="Vector_2" d="M7 8.16699C5.60809 8.16854 4.27363 8.72216 3.28939 9.70639C2.30516 10.6906 1.75154 12.0251 1.75 13.417C1.75 13.5717 1.81146 13.7201 1.92085 13.8295C2.03025 13.9389 2.17862 14.0003 2.33333 14.0003C2.48804 14.0003 2.63642 13.9389 2.74581 13.8295C2.85521 13.7201 2.91667 13.5717 2.91667 13.417C2.91667 12.334 3.34687 11.2954 4.11265 10.5296C4.87842 9.76387 5.91703 9.33366 7 9.33366C8.08297 9.33366 9.12158 9.76387 9.88735 10.5296C10.6531 11.2954 11.0833 12.334 11.0833 13.417C11.0833 13.5717 11.1448 13.7201 11.2542 13.8295C11.3636 13.9389 11.512 14.0003 11.6667 14.0003C11.8214 14.0003 11.9697 13.9389 12.0791 13.8295C12.1885 13.7201 12.25 13.5717 12.25 13.417C12.2485 12.0251 11.6948 10.6906 10.7106 9.70639C9.72637 8.72216 8.39191 8.16854 7 8.16699Z" fill="#232323"/>
</g>
<defs>
<clipPath id="clip0_12_5443">
<rect width="14" height="14" fill="white"/>
</clipPath>
</defs>
</svg>
