<svg width="16" height="16" viewBox="0 0 16 16" fill="none" xmlns="http://www.w3.org/2000/svg">
<g id="lists (1) 1">
<g id="Group">
<path id="Vector" d="M2 3.5V12.5C2 13.88 3.12 15 4.5 15H11.5C12.88 15 14 13.88 14 12.5V3.5C14 2.12 12.88 1 11.5 1H4.5C3.12 1 2 2.12 2 3.5ZM7 5H11C11.275 5 11.5 5.22501 11.5 5.5C11.5 5.77499 11.275 6 11 6H7C6.72501 6 6.5 5.77499 6.5 5.5C6.5 5.22501 6.72501 5 7 5ZM7 7.5H11C11.275 7.5 11.5 7.72501 11.5 8C11.5 8.27499 11.275 8.5 11 8.5H7C6.72501 8.5 6.5 8.27499 6.5 8C6.5 7.72501 6.72501 7.5 7 7.5ZM7 10H11C11.275 10 11.5 10.225 11.5 10.5C11.5 10.775 11.275 11 11 11H7C6.72501 11 6.5 10.775 6.5 10.5C6.5 10.225 6.72501 10 7 10ZM5.005 5H5.01001C5.285 5 5.51001 5.22501 5.51001 5.5C5.51001 5.77499 5.285 6 5.01001 6C4.73499 6 4.505 5.77499 4.505 5.5C4.505 5.22501 4.73001 5 5.005 5ZM5.005 7.5H5.01001C5.285 7.5 5.51001 7.72501 5.51001 8C5.51001 8.27499 5.285 8.5 5.01001 8.5C4.73499 8.5 4.505 8.27499 4.505 8C4.505 7.72501 4.73001 7.5 5.005 7.5ZM5.005 10H5.01001C5.285 10 5.51001 10.225 5.51001 10.5C5.51001 10.775 5.285 11 5.01001 11C4.73499 11 4.505 10.775 4.505 10.5C4.505 10.225 4.73001 10 5.005 10Z" fill="currentColor"/>
</g>
</g>
</svg>
