<svg width="14" height="14" viewBox="0 0 14 14" fill="none" xmlns="http://www.w3.org/2000/svg">
<g id="phone-flip (1) 1" clip-path="url(#clip0_12_5448)">
<path id="Vector" d="M12.9313 1.06234L12.3188 0.531511C11.613 -0.174322 10.4697 -0.174322 9.76383 0.531511C9.74633 0.549011 8.66716 1.95484 8.66716 1.95484C8.00216 2.65484 8.00216 3.75734 8.66716 4.45151L9.34383 5.30318C8.49216 7.23401 7.16799 8.56401 5.30133 9.35735L4.44966 8.67485C3.75549 8.00401 2.64716 8.00401 1.95299 8.67485C1.95299 8.67485 0.547161 9.75401 0.529661 9.77151C-0.176173 10.4773 -0.176173 11.6207 0.500494 12.2973L1.08383 12.9682C1.75466 13.639 2.65883 14.0065 3.63883 14.0065C8.09549 14.0065 13.9988 8.09735 13.9988 3.64651C13.9988 2.67234 13.6313 1.76234 12.9313 1.06818V1.06234ZM3.63883 12.834C2.97383 12.834 2.36133 12.589 1.94133 12.1632L1.35799 11.4923C1.11883 11.2532 1.10716 10.8623 1.33466 10.6115C1.33466 10.6115 2.72883 9.53818 2.74633 9.52068C2.98549 9.28151 3.40549 9.28151 3.65049 9.52068C3.66799 9.53818 4.84049 10.4773 4.84049 10.4773C5.00383 10.6057 5.21966 10.6407 5.41216 10.5648C7.82716 9.64318 9.55966 7.91651 10.5572 5.42568C10.633 5.23318 10.6038 5.01151 10.4697 4.84235C10.4697 4.84235 9.53049 3.66401 9.51883 3.65234C9.26799 3.40151 9.26799 2.99901 9.51883 2.74818C9.53633 2.73068 10.6097 1.33651 10.6097 1.33651C10.8605 1.10901 11.2513 1.11484 11.5197 1.38318L12.1322 1.91401C12.5813 2.36318 12.8322 2.97568 12.8322 3.64068C12.8322 7.70068 7.13299 12.834 3.63883 12.834Z" fill="#232323"/>
</g>
<defs>
<clipPath id="clip0_12_5448">
<rect width="14" height="14" fill="white"/>
</clipPath>
</defs>
</svg>
