<svg width="14" height="14" viewBox="0 0 14 14" fill="none" xmlns="http://www.w3.org/2000/svg">
<g id="wallet (1) 1" clip-path="url(#clip0_12_5454)">
<path id="Vector" d="M12.25 3.49999H2.91667C2.41558 3.49999 1.94133 3.28299 1.61292 2.91724C1.93375 2.55907 2.39983 2.33332 2.91667 2.33332H13.4167C13.7392 2.33332 14 2.07199 14 1.74999C14 1.42799 13.7392 1.16666 13.4167 1.16666H2.91667C1.30608 1.16666 0 2.47274 0 4.08332V9.91666C0 11.5272 1.30608 12.8333 2.91667 12.8333H12.25C13.2166 12.8333 14 12.0499 14 11.0833V5.24999C14 4.28341 13.2166 3.49999 12.25 3.49999ZM12.8333 11.0833C12.8333 11.4047 12.572 11.6667 12.25 11.6667H2.91667C1.95183 11.6667 1.16667 10.8815 1.16667 9.91666V4.08216C1.66483 4.45491 2.27733 4.66666 2.91667 4.66666H12.25C12.572 4.66666 12.8333 4.92857 12.8333 5.24999V11.0833ZM11.6667 8.16666C11.6667 8.48866 11.4053 8.74999 11.0833 8.74999C10.7613 8.74999 10.5 8.48866 10.5 8.16666C10.5 7.84466 10.7613 7.58332 11.0833 7.58332C11.4053 7.58332 11.6667 7.84466 11.6667 8.16666Z" fill="#232323"/>
</g>
<defs>
<clipPath id="clip0_12_5454">
<rect width="14" height="14" fill="white"/>
</clipPath>
</defs>
</svg>
